<svg xmlns="http://www.w3.org/2000/svg" width="134.991" height="39.998"><g data-name="Path 14" fill="none"><path d="M130.261 40H4.731A4.731 4.731 0 0 1 0 35.277V4.727A4.735 4.735 0 0 1 4.731 0H130.26a4.737 4.737 0 0 1 4.731 4.727v30.549a4.731 4.731 0 0 1-4.73 4.724z"/><path d="M130.26 38.998a3.71 3.71 0 0 0 2.638-1.093 3.687 3.687 0 0 0 1.093-2.63V4.73A3.743 3.743 0 0 0 130.26 1H4.732A3.74 3.74 0 0 0 1 4.727v30.548a3.737 3.737 0 0 0 3.731 3.723h125.53m0 1H4.73A4.731 4.731 0 0 1 0 35.277V4.727A4.735 4.735 0 0 1 4.731 0H130.26a4.737 4.737 0 0 1 4.731 4.727v30.549c.002 2.604-2.124 4.722-4.73 4.722z" fill="#7b7b93"/></g><path data-name="Path 16" d="M30.143 19.789a5.8 5.8 0 0 1 2.76-4.865 5.941 5.941 0 0 0-4.678-2.529c-1.968-.207-3.877 1.177-4.879 1.177-1.022 0-2.566-1.157-4.23-1.123a6.229 6.229 0 0 0-5.243 3.2c-2.267 3.924-.576 9.69 1.6 12.862 1.087 1.554 2.356 3.288 4.018 3.227 1.626-.066 2.233-1.035 4.2-1.035 1.944 0 2.514 1.035 4.209 1 1.745-.027 2.843-1.56 3.892-3.128a12.82 12.82 0 0 0 1.78-3.624 5.61 5.61 0 0 1-3.422-5.155zm-3.2-9.48a5.706 5.706 0 0 0 1.307-4.09 5.816 5.816 0 0 0-3.76 1.944 5.43 5.43 0 0 0-1.341 3.939 4.8 4.8 0 0 0 3.792-1.793z" fill="#7b7b93"/><g data-name="Group 66"><path data-name="Path 18" d="M53.69 31.511h-2.272l-1.245-3.91h-4.326l-1.186 3.91h-2.212L46.738 18.2h2.647l4.306 13.311zm-3.892-5.55l-1.125-3.474q-.179-.533-.671-2.508h-.04q-.2.849-.632 2.508l-1.107 3.476zm14.9.633a5.434 5.434 0 0 1-1.331 3.87 3.9 3.9 0 0 1-2.959 1.264 2.963 2.963 0 0 1-2.741-1.361v5.036h-2.133V25.067q0-1.538-.079-3.155h1.876l.119 1.521h.04a3.8 3.8 0 0 1 6.074-.377 5.306 5.306 0 0 1 1.129 3.538zm-2.173.078a3.956 3.956 0 0 0-.632-2.311 2.186 2.186 0 0 0-1.857-.947 2.219 2.219 0 0 0-1.432.523 2.426 2.426 0 0 0-.839 1.373 2.784 2.784 0 0 0-.1.649v1.6a2.567 2.567 0 0 0 .642 1.768 2.132 2.132 0 0 0 1.669.721 2.186 2.186 0 0 0 1.876-.928 4.084 4.084 0 0 0 .668-2.448zm13.215-.078a5.434 5.434 0 0 1-1.331 3.87 3.9 3.9 0 0 1-2.96 1.264 2.963 2.963 0 0 1-2.741-1.361v5.036h-2.133V25.067q0-1.538-.079-3.155h1.876l.119 1.521h.04a3.8 3.8 0 0 1 6.075-.377 5.312 5.312 0 0 1 1.132 3.538zm-2.174.078a3.956 3.956 0 0 0-.633-2.311 2.182 2.182 0 0 0-1.855-.947 2.228 2.228 0 0 0-1.434.523 2.425 2.425 0 0 0-.838 1.373 2.849 2.849 0 0 0-.1.649v1.6a2.576 2.576 0 0 0 .641 1.768 2.137 2.137 0 0 0 1.671.721 2.184 2.184 0 0 0 1.876-.928 4.085 4.085 0 0 0 .668-2.448zm14.52 1.105a3.555 3.555 0 0 1-1.184 2.766 5.247 5.247 0 0 1-3.627 1.165 6.332 6.332 0 0 1-3.448-.829l.493-1.777a5.935 5.935 0 0 0 3.081.83 2.908 2.908 0 0 0 1.876-.543 1.774 1.774 0 0 0 .673-1.45 1.859 1.859 0 0 0-.554-1.363 5.139 5.139 0 0 0-1.837-1.026q-3.5-1.3-3.5-3.813a3.366 3.366 0 0 1 1.235-2.686 4.883 4.883 0 0 1 3.27-1.047 6.463 6.463 0 0 1 3.022.632l-.535 1.738a5.286 5.286 0 0 0-2.558-.612 2.6 2.6 0 0 0-1.765.553 1.583 1.583 0 0 0-.535 1.206 1.63 1.63 0 0 0 .613 1.3 6.91 6.91 0 0 0 1.935 1.026 6.56 6.56 0 0 1 2.528 1.618 3.372 3.372 0 0 1 .813 2.309zm7.07-4.264h-2.351v4.66q0 1.778 1.245 1.776a3.748 3.748 0 0 0 .947-.1l.059 1.619a4.834 4.834 0 0 1-1.659.236 2.557 2.557 0 0 1-1.976-.771 3.781 3.781 0 0 1-.711-2.588v-4.836h-1.4v-1.6h1.4v-1.758l2.095-.632v2.39h2.351v1.6zm10.587 3.12a5.264 5.264 0 0 1-1.265 3.634 4.508 4.508 0 0 1-3.516 1.461 4.3 4.3 0 0 1-3.369-1.4 5.1 5.1 0 0 1-1.255-3.535 5.222 5.222 0 0 1 1.294-3.653 4.485 4.485 0 0 1 3.488-1.422 4.388 4.388 0 0 1 3.4 1.4 5.038 5.038 0 0 1 1.226 3.513zm-2.211.049a4.3 4.3 0 0 0-.571-2.264 2.111 2.111 0 0 0-1.917-1.143 2.142 2.142 0 0 0-1.956 1.143 4.368 4.368 0 0 0-.572 2.3 4.284 4.284 0 0 0 .568 2.269 2.188 2.188 0 0 0 3.855-.019 4.314 4.314 0 0 0 .589-2.286zm9.147-2.894a3.714 3.714 0 0 0-.672-.059 2.013 2.013 0 0 0-1.739.85 3.2 3.2 0 0 0-.532 1.9v5.036h-2.133v-6.58q0-1.511-.062-3.022h1.858l.078 1.836h.059a3.293 3.293 0 0 1 1.067-1.521 2.58 2.58 0 0 1 1.542-.514 3.425 3.425 0 0 1 .533.039v2.034zm9.54 2.47a5 5 0 0 1-.078.967h-6.4a2.783 2.783 0 0 0 .928 2.174 3.175 3.175 0 0 0 2.093.67 7.079 7.079 0 0 0 2.589-.453l.334 1.479a8.007 8.007 0 0 1-3.219.593 4.667 4.667 0 0 1-3.508-1.312 4.851 4.851 0 0 1-1.274-3.525 5.5 5.5 0 0 1 1.187-3.613 4.088 4.088 0 0 1 3.357-1.539 3.578 3.578 0 0 1 3.143 1.539 5.179 5.179 0 0 1 .844 3.02zm-2.034-.553a2.886 2.886 0 0 0-.414-1.639 1.863 1.863 0 0 0-1.7-.89 2.022 2.022 0 0 0-1.7.869 3.185 3.185 0 0 0-.631 1.658z" fill="#7b7b93"/></g><g data-name="Group 67"><path data-name="Path 19" d="M45.233 13.494a13.622 13.622 0 0 1-1.534-.078V6.98a11.615 11.615 0 0 1 1.806-.136c2.446 0 3.573 1.2 3.573 3.165 0 2.262-1.331 3.485-3.845 3.485zm.358-5.824a4.281 4.281 0 0 0-.844.068v4.892a5.537 5.537 0 0 0 .708.029 2.318 2.318 0 0 0 2.515-2.621 2.135 2.135 0 0 0-2.377-2.369zm7 5.873a2.245 2.245 0 0 1-2.272-2.427 2.3 2.3 0 0 1 2.35-2.495 2.228 2.228 0 0 1 2.272 2.418 2.311 2.311 0 0 1-2.348 2.504zm.04-4.155c-.757 0-1.243.708-1.243 1.7 0 .971.5 1.679 1.233 1.679s1.233-.757 1.233-1.7c-.003-.961-.488-1.679-1.225-1.679zm10.172-.669l-1.478 4.716h-.961l-.611-2.048a15.53 15.53 0 0 1-.379-1.523h-.02a10.211 10.211 0 0 1-.378 1.523l-.65 2.048h-.971l-1.389-4.717h1.078l.534 2.242q.189.8.32 1.514h.02c.077-.4.2-.893.388-1.5l.67-2.251h.854l.641 2.2c.155.534.281 1.058.379 1.553h.028a13.575 13.575 0 0 1 .32-1.553l.573-2.2H62.8zm5.43 4.716h-1.048v-2.708c0-.834-.32-1.252-.951-1.252a1.089 1.089 0 0 0-1.048 1.155v2.805h-1.049v-3.368c0-.417-.01-.864-.039-1.349h.922l.049.728h.029a1.7 1.7 0 0 1 1.5-.824c.99 0 1.641.757 1.641 1.989v2.824zm2.891 0h-1.049V6.554h1.049zm3.823.107a2.246 2.246 0 0 1-2.272-2.427 2.3 2.3 0 0 1 2.349-2.495 2.227 2.227 0 0 1 2.269 2.415 2.311 2.311 0 0 1-2.346 2.508zm.039-4.155c-.757 0-1.243.708-1.243 1.7 0 .971.5 1.679 1.232 1.679s1.233-.757 1.233-1.7c0-.96-.483-1.678-1.222-1.678zm6.444 4.048l-.076-.543h-.028a1.611 1.611 0 0 1-1.38.65 1.372 1.372 0 0 1-1.446-1.388c0-1.164 1.009-1.766 2.757-1.766v-.087c0-.621-.329-.932-.979-.932a2.208 2.208 0 0 0-1.233.35l-.213-.689a3.016 3.016 0 0 1 1.62-.408c1.233 0 1.855.65 1.855 1.951v1.737a7.127 7.127 0 0 0 .068 1.126zm-.144-2.35c-1.165 0-1.749.282-1.749.951a.668.668 0 0 0 .719.737 1 1 0 0 0 1.029-.96zm6.113 2.35l-.049-.757h-.029a1.582 1.582 0 0 1-1.515.864 2.15 2.15 0 0 1-1.98-2.408 2.238 2.238 0 0 1 2.067-2.513 1.418 1.418 0 0 1 1.331.641h.021V6.554h1.05v5.61c0 .456.011.883.039 1.271zm-.155-2.776a1.141 1.141 0 0 0-1.1-1.223c-.777 0-1.253.689-1.253 1.659 0 .951.493 1.6 1.232 1.6a1.177 1.177 0 0 0 1.126-1.252v-.786zm7.7 2.883a2.245 2.245 0 0 1-2.271-2.427 2.3 2.3 0 0 1 2.349-2.495 2.227 2.227 0 0 1 2.272 2.418 2.31 2.31 0 0 1-2.346 2.505zm.039-4.155c-.756 0-1.242.708-1.242 1.7 0 .971.5 1.679 1.232 1.679s1.233-.757 1.233-1.7c0-.96-.483-1.678-1.223-1.678zm7.95 4.048h-1.049v-2.708c0-.834-.32-1.252-.951-1.252a1.088 1.088 0 0 0-1.04 1.16v2.8h-1.049v-3.368c0-.417-.01-.864-.039-1.349h.922l.049.728h.029a1.694 1.694 0 0 1 1.495-.825c.99 0 1.642.757 1.642 1.989zm7.06-3.93h-1.154v2.29c0 .583.2.874.61.874a2.066 2.066 0 0 0 .465-.049l.029.8a2.323 2.323 0 0 1-.813.117c-.826 0-1.321-.456-1.321-1.65V9.505h-.688v-.786h.688v-.864l1.029-.311v1.174h1.155zm5.551 3.931h-1.051v-2.689c0-.844-.319-1.271-.951-1.271a1.028 1.028 0 0 0-1.05 1.116v2.843h-1.048V6.554h1.049v2.834h.021a1.591 1.591 0 0 1 1.419-.767c1 0 1.609.776 1.609 2.009zm5.687-2.106h-3.146a1.354 1.354 0 0 0 1.487 1.4 3.544 3.544 0 0 0 1.272-.223l.163.728a3.94 3.94 0 0 1-1.583.291 2.19 2.19 0 0 1-2.349-2.378 2.3 2.3 0 0 1 2.231-2.534 1.981 1.981 0 0 1 1.962 2.242 2.02 2.02 0 0 1-.036.475zm-.961-.747c0-.728-.367-1.242-1.038-1.242a1.244 1.244 0 0 0-1.147 1.242z" fill="#7b7b93"/></g></svg>