<svg xmlns="http://www.w3.org/2000/svg" width="118.151" height="39.997"><defs><linearGradient id="a" x1="-.505" y1="2.232" x2="-.508" y2="2.226" gradientUnits="objectBoundingBox"><stop offset="0" stop-color="#064aa2"/><stop offset="1" stop-color="#63ffd4"/></linearGradient></defs><g fill="none"><path d="M4.8 0h108.551a4.8 4.8 0 0 1 4.8 4.8v30.4a4.8 4.8 0 0 1-4.8 4.8H4.8A4.8 4.8 0 0 1 0 35.2V4.8A4.8 4.8 0 0 1 4.8 0z"/><path d="M4.8 1A3.804 3.804 0 0 0 1 4.8v30.397c0 2.095 1.704 3.8 3.8 3.8h108.55c2.095 0 3.8-1.705 3.8-3.8V4.8c0-2.095-1.705-3.8-3.8-3.8H4.8m0-1h108.55c2.648 0 4.8 2.152 4.8 4.8v30.397c0 2.648-2.152 4.8-4.8 4.8H4.8a4.803 4.803 0 0 1-4.8-4.8V4.8C0 2.152 2.152 0 4.8 0z" fill="#7b7b93"/></g><path d="M11.119 10.159L.4 0a.514.514 0 0 0-.4.56V20a.476.476 0 0 0 .24.48z" fill="url(#a)" transform="translate(4.8 10.025)"/><path d="M18.879 17.384L14.4 14.905c-.017.04-8.168-4.489-8.64-4.72-.48-.304-.96-.136-.96.4v19.518c0 .432.344.608.72.4.456-.256 8.863-4.92 8.879-4.96l4.48-2.48c-.024.032 3.768-2.072 4.24-2.32.544-.312.488-.7.08-.88-.44-.256-4.344-2.44-4.32-2.48" fill="none"/><path d="M14.398 14.905c-.016.04-8.167-4.488-8.639-4.72-.48-.3-.96-.136-.96.4v19.518c0 .432.344.608.72.4.456-.256 8.863-4.92 8.879-4.96l4.48-2.48c-.024.032 3.768-2.072 4.24-2.32.544-.312.488-.7.08-.88-.44-.256-4.344-2.44-4.32-2.48z" fill="#7b7b93"/><path d="M15.921 20.187c.487.456 2.977 2.866 2.977 2.866s3.788-2.038 4.292-2.318.456-.664.032-.88-4.342-2.469-4.342-2.469z" fill="#fff" opacity=".15"/><path d="M5.766 10.108a.859.859 0 0 0-.576-.092l10.727 10.176 2.968-2.808-4.472-2.476-6.759-3.748z" fill="#fff" opacity=".1"/><path d="M18.877 17.384l-4.479-2.479c-.017.04-8.16-4.489-8.64-4.72-.48-.3-.96-.136-.96.4v19.518c0 .432.344.608.72.4.456-.256 8.863-4.92 8.879-4.96l4.48-2.48c-.024.032 3.768-2.072 4.24-2.32.544-.312.488-.7.08-.88-.44-.256-4.344-2.44-4.32-2.48" fill="none"/><path data-name="orange" d="M4.824 30.047c0 .416.344.592.76.368s8.831-4.9 8.831-4.9 1.144-.632 1.712-.952c.92-.512 2.772-1.514 2.772-1.514l-2.98-2.865z" fill="#fff" opacity=".1"/><g fill="#7b7b93"><path d="M80.921 27.91l-.888.84c-.208.112-.408.248-.608.336a4.288 4.288 0 0 1-1.8.352 3.944 3.944 0 0 1-2.464-.728 4.833 4.833 0 0 1-1.887-3.931 4.212 4.212 0 0 1 4.248-4.3 3.587 3.587 0 0 1 1.9.52 3.076 3.076 0 0 1 1.3 1.848l-4.348 1.768-1.424.112c.464 2.368 2.056 3.744 3.816 3.744a4.563 4.563 0 0 0 2.128-.584s.116-.065.027.023zm-2.656-4.752c.352-.128.528-.24.528-.5a1.835 1.835 0 0 0-1.819-1.619c-.728 0-2.1.584-2.1 2.608 0 .32.04.656.056.992z"/><path d="M71.835 27.806c0 .72.128.832.736.888.32.04.632.056.944.088l-.68.408h-3.256c.424-.56.5-.616.5-.984v-.416l-.004-11.039h-1.44l1.384-.672h2.64a1.275 1.275 0 0 0-.816 1.184l-.008 10.543"/><path d="M66.786 21.391a3.042 3.042 0 0 1-.24 5.144 1.314 1.314 0 0 0-.52.912 1.033 1.033 0 0 0 .48.8l.664.52a3.242 3.242 0 0 1 1.544 2.6c0 1.744-1.68 3.512-4.848 3.512-2.672 0-3.96-1.28-3.96-2.656a2.657 2.657 0 0 1 1.424-2.264 7.9 7.9 0 0 1 3.52-.856 1.972 1.972 0 0 1-.552-1.264 1.772 1.772 0 0 1 .184-.728c-.2.016-.408.04-.592.04a2.926 2.926 0 0 1-3.056-2.92 3.326 3.326 0 0 1 1.184-2.488 5 5 0 0 1 3.3-1.024h3.8l-1.184.672zm-1.3 8.231a2.331 2.331 0 0 0-.424-.024 7.35 7.35 0 0 0-1.952.3 2.121 2.121 0 0 0-1.6 1.952c0 1.344 1.28 2.312 3.272 2.312 1.784 0 2.728-.872 2.728-2.04.004-.972-.612-1.484-2.019-2.503zm.521-3.583a1.875 1.875 0 0 0 .464-1.352c0-1.336-.784-3.408-2.312-3.408a1.714 1.714 0 0 0-1.288.616 2.136 2.136 0 0 0-.4 1.368c0 1.24.72 3.3 2.3 3.3a1.846 1.846 0 0 0 1.236-.524zm-10.711 3.399a4.385 4.385 0 0 1-4.5-4.416 4.6 4.6 0 0 1 4.784-4.543 4.351 4.351 0 0 1 4.416 4.416 4.54 4.54 0 0 1-4.7 4.543zm2.3-1.512a3.407 3.407 0 0 0 .56-2.08c0-1.656-.776-4.808-3.08-4.808a2.561 2.561 0 0 0-1.672.64 2.867 2.867 0 0 0-.856 2.288c0 1.856.9 4.912 3.152 4.912a2.345 2.345 0 0 0 1.896-.952zm-12.139 1.512a4.385 4.385 0 0 1-4.5-4.416 4.6 4.6 0 0 1 4.784-4.543 4.351 4.351 0 0 1 4.416 4.416 4.54 4.54 0 0 1-4.7 4.543zm2.3-1.512a3.407 3.407 0 0 0 .56-2.08c0-1.656-.784-4.808-3.08-4.808a2.545 2.545 0 0 0-1.672.64 2.841 2.841 0 0 0-.856 2.288c0 1.856.912 4.912 3.152 4.912a2.345 2.345 0 0 0 1.896-.952zm-8.016.96l-2.483.576a18.069 18.069 0 0 1-2.872.3 6.207 6.207 0 0 1-6.628-6.34c0-3.391 2.592-6.543 7.023-6.543a9.875 9.875 0 0 1 2.664.368 6.757 6.757 0 0 1 2.3 1.088l-1.452 1.384-.608.136.432-.7a4.966 4.966 0 0 0-3.72-1.648 4.817 4.817 0 0 0-4.816 5.16 6.165 6.165 0 0 0 6.152 6.383 5.2 5.2 0 0 0 2.208-.432v-2.82l-2.624.144 1.392-.752h3.688l-.448.44a.426.426 0 0 0-.176.28c-.016.16-.032.664-.032.848v2.128m46.548-.896v4.728h-.936V20.695h.936v1.368a3.71 3.71 0 0 1 3.016-1.584c2.32 0 3.888 1.768 3.888 4.56 0 2.776-1.56 4.576-3.888 4.576a3.713 3.713 0 0 1-3.016-1.625zm5.944-2.88c0-2.128-1.1-3.752-3.048-3.752a3.727 3.727 0 0 0-2.872 1.8v3.888a3.76 3.76 0 0 0 2.872 1.832c1.952.001 3.047-1.64 3.047-3.767zm2.24-7.751h.96v12.079h-.96zm11.399 14.527a2.246 2.246 0 0 0 .76.144c.576 0 .968-.232 1.328-1.064l.68-1.552-3.688-8.775H106l3.16 7.607 3.135-7.607h1.057l-4.5 10.615a2.3 2.3 0 0 1-2.208 1.624 3.675 3.675 0 0 1-.936-.128l.16-.864m-2.644-2.456q-.1-.456-.144-.792a4.776 4.776 0 0 1-.048-.68 3.7 3.7 0 0 1-1.368 1.184 3.772 3.772 0 0 1-1.9.464 3.036 3.036 0 0 1-2.136-.688 2.394 2.394 0 0 1-.76-1.864 2.213 2.213 0 0 1 1.1-1.912 5.087 5.087 0 0 1 2.864-.736h2.192v-1.087a1.818 1.818 0 0 0-.64-1.472 2.7 2.7 0 0 0-1.8-.536 2.871 2.871 0 0 0-1.728.488 1.493 1.493 0 0 0-.656 1.224h-.96l-.016-.048a2.027 2.027 0 0 1 .912-1.744 3.922 3.922 0 0 1 2.5-.752 3.88 3.88 0 0 1 2.48.744 2.537 2.537 0 0 1 .936 2.12v4.32a6.693 6.693 0 0 0 .056.9 6.137 6.137 0 0 0 .184.864h-1.068zm-3.344-.632a3.539 3.539 0 0 0 1.96-.536 2.687 2.687 0 0 0 1.184-1.376v-1.687h-2.208a3.569 3.569 0 0 0-2.088.568 1.628 1.628 0 0 0-.824 1.368 1.513 1.513 0 0 0 .528 1.208 2.166 2.166 0 0 0 1.448.455z"/></g><path d="M27.438 9.224a2.867 2.867 0 0 1 3.088-2.832 2.832 2.832 0 0 1 2.368 1.136l-.84.448a1.953 1.953 0 0 0-1.528-.728 1.945 1.945 0 0 0-2.032 1.976 1.954 1.954 0 0 0 2.032 1.976 2.182 2.182 0 0 0 1.392-.5v-.84h-1.76v-.844h2.78v2.04a3.281 3.281 0 0 1-2.416 1 2.863 2.863 0 0 1-3.084-2.832m6.839 2.756v-5.5h4.088v.848h-3.04v1.416h2.976V9.6h-2.976v1.536h3.04v.844h-4.088m6.864 0V7.328h-1.776V6.48h4.584v.848h-1.776v4.652h-1.032m6.479-5.5h1v5.5h-1zm3.864 5.5V7.328h-1.776V6.48h4.584v.848h-1.776v4.652h-1.032m6.232-2.748a3.052 3.052 0 1 1 3.048 2.832 2.839 2.839 0 0 1-3.048-2.832zm5-.048a1.96 1.96 0 1 0-3.92 0 1.96 1.96 0 1 0 3.92 0zm6.347 2.796l-3.064-3.936v3.936h-1.036v-5.5h1.056l3 3.816V6.48h1.032v5.5h-.988" fill="#7b7b93"/></svg>