<svg xmlns="http://www.w3.org/2000/svg" width="260" height="86.554"><g data-name="ag loqo"><path data-name="Path 235" d="M60.74 52.429l-19.719 3.033v-24.37l19.719 3.033a9.331 9.331 0 0 1 7.578 9.351 9.322 9.322 0 0 1-7.578 8.954z" fill="#fff"/><path data-name="Path 236" d="M12.636 28.1l28.44-5.087V0l-28.44 14.05z" fill="#ccc"/><path data-name="Path 237" d="M0 47.904l41.076 7.558v-24.37L0 38.652z" fill="#ccc"/><path data-name="Path 238" d="M12.636 72.222l28.44 14.332V63.53l-28.44-4.738z" fill="#ccc"/><path data-name="Path 239" d="M41.017 0v22.986l19.06 3.078a17.118 17.118 0 0 1 14.409 16.9 17.127 17.127 0 0 1-13.888 16.81l-19.581 3.794v22.986L63.42 75a36.086 36.086 0 0 0 19.564-32.076 36.1 36.1 0 0 0-20.349-32.5z" fill="#fff"/><path data-name="Path 240" d="M119.533 32.311c0 6.638-4.845 11.4-11.744 11.4h-9.215V20.945h9.215c6.89 0 11.744 4.709 11.744 11.366zm-6.424 0a5.3 5.3 0 0 0-5.62-5.62h-2.616v11.27h2.616a5.339 5.339 0 0 0 5.62-5.649z" fill="#fff"/><path data-name="Path 241" d="M132.317 34.85v8.905h-6.386v-8.973l-7.868-13.837h6.957l4.157 8.227 4.167-8.227h6.948z" fill="#fff"/><path data-name="Path 242" d="M162.152 20.945v22.762h-5.18l-9.041-12.355v12.355h-6.089V20.945h5.494l8.721 11.938V20.945z" fill="#fff"/><path data-name="Path 243" d="M179.544 40.005h-8.062l-1.26 3.7h-6.678l8.944-22.762h6.124l9.138 22.762h-6.9zm-4.041-11.938l-2.5 7.054h5.01z" fill="#fff"/><path data-name="Path 244" d="M211.539 43.707l-1.773-13.112-6.035 13.15h-1.851l-6.027-13.14-1.754 13.1h-6.368l3.44-22.762h6.25l5.359 12.384 5.388-12.384h6.26l3.411 22.762z" fill="#fff"/><path data-name="Path 245" d="M220.088 20.945h6.35v22.762h-6.36z" fill="#fff"/><path data-name="Path 246" d="M228.847 32.341a11.744 11.744 0 0 1 12.122-11.967 11.308 11.308 0 0 1 11.512 9.69h-6.376a5.4 5.4 0 0 0-5.145-3.876c-3.217 0-5.581 2.6-5.581 6.114s2.364 6.066 5.581 6.066a5.242 5.242 0 0 0 5.155-4.176h6.405a11.357 11.357 0 0 1-11.55 10.087 11.735 11.735 0 0 1-12.123-11.938z" fill="#fff"/><path data-name="Path 247" d="M101.187 60.158h5.339v-2.131h-5.339v-3.208h5.775v-2.151h-7.946v13.37h8.12v-2.149h-5.95z" fill="#fff"/><path data-name="Path 248" d="M124.54 52.668h-2.616l-3.236 4.6-3.227-4.6h-2.616l4.516 6.424-4.885 6.946h2.616l3.595-5.116 3.595 5.116h2.616l-4.884-6.938z" fill="#fff"/><path data-name="Path 249" d="M136.011 52.668h-4.767v13.371h2.161v-4.68h2.607a4.36 4.36 0 1 0 0-8.721zm-2.607 2.151h2.587a2.2 2.2 0 1 1 0 4.39h-2.587z" fill="#fff"/><path data-name="Path 250" d="M157.452 56.815a4.176 4.176 0 0 0-4.377-4.147h-5.08v13.37h2.171v-5.066h2.335l3.052 5.1h2.51l-3.207-5.446a3.992 3.992 0 0 0 2.6-3.808zm-7.287-2.006h2.91a2.035 2.035 0 0 1 2.229 2 2 2 0 0 1-2.229 1.934h-2.907z" fill="#fff"/><path data-name="Path 251" d="M167.491 60.158h5.339v-2.131h-5.339v-3.208h5.775v-2.151h-7.946v13.37h8.13v-2.149h-5.959z" fill="#fff"/><path data-name="Path 252" d="M185.358 58.142c-1.938-.426-2.733-.7-2.733-1.715 0-1.289 1.24-1.744 2.413-1.744s2.316.5 2.316 1.938v.8h2.161v-.814c0-2.442-1.8-4.079-4.467-4.079s-4.593 1.57-4.593 3.876c0 2.839 2.558 3.4 4.438 3.808s2.752.727 2.752 1.822-.969 1.938-2.51 1.938c-1.705 0-2.762-.862-2.762-2.248v-.752h-2.17v.8c0 2.636 1.986 4.4 4.932 4.4 2.762 0 4.69-1.686 4.69-4.118 0-2.912-2.568-3.485-4.467-3.912z" fill="#fff"/><path data-name="Path 253" d="M201.854 58.142c-1.938-.426-2.733-.7-2.733-1.715 0-1.289 1.24-1.744 2.4-1.744s2.316.5 2.316 1.938v.8h2.161v-.814c0-2.442-1.793-4.079-4.467-4.079s-4.583 1.57-4.583 3.876c0 2.839 2.548 3.4 4.438 3.808s2.752.727 2.752 1.822-.969 1.938-2.51 1.938c-1.705 0-2.762-.862-2.762-2.248v-.752h-2.172v.8c0 2.636 1.938 4.4 4.932 4.4 2.762 0 4.68-1.686 4.68-4.118 0-2.912-2.558-3.485-4.452-3.912z" fill="#fff"/><path data-name="Path 254" d="M212.335 55.798l36-1.5-36-1.512c-.64 0-1.143.659-1.143 1.512s.504 1.5 1.143 1.5z" fill="#fff"/><path data-name="Path 255" d="M212.335 60.859l47.665-1.5-47.678-1.504c-.64 0-1.143.659-1.143 1.5a1.352 1.352 0 0 0 1.156 1.504z" fill="#fff"/><path data-name="Path 256" d="M211.192 64.428c0 .843.5 1.5 1.143 1.5l35.988-1.5-35.988-1.521c-.639 0-1.143.678-1.143 1.521z" fill="#fff"/></g></svg>