<svg xmlns="http://www.w3.org/2000/svg" viewBox="0 0 268.65 89.43"><defs><style>.cls-1{fill:#e53935}</style></defs><g id="Layer_2" data-name="Layer 2"><g id="Layer_1-2" data-name="Layer 1"><path class="cls-1" d="M62.74 54.16l-20.35 3.13V32.14l20.35 3.13a9.63 9.63 0 0 1 7.82 9.65 9.62 9.62 0 0 1-7.82 9.24z"/><path d="M13.04 29l29.35-5.25V0L13.04 14.5V29zM0 49.49l42.39 7.8V32.14L0 39.94v9.55zm13.04 25.15l29.35 14.79V65.67l-29.35-4.89v13.86z" fill="#b71c1c"/><path class="cls-1" d="M42.39 0v23.75l19.67 3.18a17.68 17.68 0 0 1 14.87 17.46A17.69 17.69 0 0 1 62.6 61.76l-20.21 3.92v23.75l23.12-11.94A37.29 37.29 0 0 0 85.7 44.35a37.3 37.3 0 0 0-21-33.58z"/><path d="M123.49 33.38c0 6.85-5 11.76-12.12 11.76h-9.51V21.65h9.51c7.11 0 12.12 4.86 12.12 11.73zm-6.63 0a5.47 5.47 0 0 0-5.8-5.8h-2.7v11.63h2.7a5.51 5.51 0 0 0 5.8-5.83zM136.71 36v9.19h-6.59v-9.26L122 21.65h7.18l4.29 8.49 4.3-8.49h7.17zm30.82-14.35v23.49h-5.35l-9.33-12.75v12.75h-6.28V21.65h5.67l9 12.32V21.65zm17.98 19.67h-8.32l-1.3 3.82H169l9.23-23.49h6.32l9.43 23.49h-7.12zM181.34 29l-2.58 7.28h5.17zm37.23 16.14l-1.83-13.53-6.23 13.57h-1.91l-6.22-13.56-1.81 13.52H194l3.55-23.49H204l5.53 12.78 5.56-12.78h6.46l3.52 23.49zm8.88-23.49H234v23.49h-6.56zm9.04 11.76A12.12 12.12 0 0 1 249 21.06a11.67 11.67 0 0 1 11.88 10h-6.58a5.57 5.57 0 0 0-5.31-4c-3.32 0-5.76 2.68-5.76 6.31s2.44 6.26 5.76 6.26a5.41 5.41 0 0 0 5.32-4.31h6.61A11.72 11.72 0 0 1 249 45.73a12.11 12.11 0 0 1-12.51-12.32z" fill="#1a1a1a"/><path class="cls-1" d="M104.55 62.16h5.51v-2.2h-5.51v-3.31h5.96v-2.22h-8.2v13.8h8.38v-2.22h-6.14v-3.85zm24.12-7.73h-2.7l-3.34 4.75-3.33-4.75h-2.7l4.66 6.63-5.04 7.17h2.7l3.71-5.28 3.71 5.28h2.7L124 61.07l4.67-6.64zm11.86 0h-4.92v13.8h2.23V63.4h2.69a4.49 4.49 0 1 0 0-9zm-2.69 2.22h2.67a2.27 2.27 0 1 1 0 4.53h-2.67zm24.84 2.06a4.31 4.31 0 0 0-4.52-4.28h-5.24v13.8h2.24V63h2.41l3.15 5.26h2.59L160 62.64a4.12 4.12 0 0 0 2.68-3.93zm-7.52-2.07h3a2.1 2.1 0 0 1 2.3 2.06 2.06 2.06 0 0 1-2.3 2h-3zm17.9 5.52h5.51v-2.2h-5.51v-3.31h5.96v-2.22h-8.2v13.8h8.39v-2.22h-6.15v-3.85zm18.46-2.08c-2-.44-2.82-.72-2.82-1.77 0-1.33 1.28-1.8 2.49-1.8s2.39.52 2.39 2v.83h2.23v-.84c0-2.52-1.86-4.21-4.61-4.21s-4.74 1.62-4.74 4c0 2.93 2.64 3.51 4.58 3.93s2.84.75 2.84 1.88-1 2-2.59 2c-1.76 0-2.85-.89-2.85-2.32V63h-2.24v.83c0 2.72 2.05 4.54 5.09 4.54 2.85 0 4.84-1.74 4.84-4.25 0-3.01-2.65-3.6-4.61-4.04zm17.04 0c-2-.44-2.82-.72-2.82-1.77 0-1.33 1.28-1.8 2.48-1.8s2.39.52 2.39 2v.83h2.23v-.84c0-2.52-1.85-4.21-4.61-4.21s-4.73 1.62-4.73 4c0 2.93 2.63 3.51 4.58 3.93s2.84.75 2.84 1.88-1 2-2.59 2c-1.76 0-2.85-.89-2.85-2.32V63h-2.24v.83c0 2.72 2 4.54 5.09 4.54 2.85 0 4.83-1.74 4.83-4.25 0-3.01-2.64-3.6-4.6-4.04zm10.89-2.43l37.15-1.55-37.15-1.56c-.66 0-1.18.68-1.18 1.56s.52 1.55 1.18 1.55zm0 5.23l49.19-1.55-49.2-1.55c-.66 0-1.18.68-1.18 1.55s.53 1.55 1.19 1.55zm-1.18 3.69c0 .87.52 1.55 1.18 1.55l37.14-1.55L219.45 65c-.66 0-1.18.7-1.18 1.57z"/></g></g></svg>