<svg width="80" height="88" fill="none" xmlns="http://www.w3.org/2000/svg"><path fill-rule="evenodd" clip-rule="evenodd" d="M44.782 79.717C64.62 77.354 80 60.473 80 40 80 17.909 62.091 0 40 0S0 17.909 0 40c0 20.473 15.38 37.354 35.218 39.717L40 88l4.782-8.283z" fill="#e63b34"/><path fill-rule="evenodd" clip-rule="evenodd" d="M40.935 59.717A1.708 1.708 0 0 1 40 60c-.323 0-.663-.1-.935-.283C38.402 59.3 23 49.083 23 36.667 23 27.483 30.633 20 40 20s17 7.483 17 16.667c0 12.416-15.402 22.633-16.065 23.05zM53.6 36.667c0-7.35-6.103-13.334-13.6-13.334s-13.6 5.984-13.6 13.334c0 9.016 10.37 17.266 13.6 19.616 3.23-2.35 13.6-10.6 13.6-19.616zm-6.8 0c0 3.683-3.043 6.666-6.8 6.666-3.757 0-6.8-2.983-6.8-6.666C33.2 32.983 36.243 30 40 30c3.757 0 6.8 2.983 6.8 6.667zm-3.4 0c0-1.834-1.53-3.334-3.4-3.334-1.87 0-3.4 1.5-3.4 3.334C36.6 38.5 38.13 40 40 40c1.87 0 3.4-1.5 3.4-3.333z" fill="#fff"/></svg>